<svg xmlns="http://www.w3.org/2000/svg" xmlns:xlink="http://www.w3.org/1999/xlink" width="500" zoomAndPan="magnify" viewBox="0 0 375 374.999991" height="500" preserveAspectRatio="xMidYMid meet" version="1.0"><defs><clipPath id="db00ef80c4"><path d="M 91 0 L 352.5 0 L 352.5 186 L 91 186 Z M 91 0 " clip-rule="nonzero"/></clipPath><clipPath id="f1f9af0140"><path d="M 22.5 63 L 284 63 L 284 249 L 22.5 249 Z M 22.5 63 " clip-rule="nonzero"/></clipPath><clipPath id="31626433ba"><path d="M 91 126 L 352.5 126 L 352.5 312 L 91 312 Z M 91 126 " clip-rule="nonzero"/></clipPath><clipPath id="2136a256d2"><path d="M 22.664062 189.808594 L 283.652344 189.808594 L 283.652344 375 L 22.664062 375 Z M 22.664062 189.808594 " clip-rule="nonzero"/></clipPath></defs><g clip-path="url(#db00ef80c4)"><path fill="#587d9f" d="M 259.679688 126.75 C 250.8125 126.75 247.816406 125.5 220.09375 109.265625 C 212.347656 104.769531 202.859375 99.277344 191.121094 92.53125 C 202.859375 85.914062 212.226562 80.417969 219.96875 75.925781 C 248.0625 59.691406 251.058594 58.316406 259.679688 58.316406 C 278.53125 58.316406 293.769531 73.675781 293.894531 92.65625 C 293.769531 111.515625 278.410156 126.75 259.679688 126.75 Z M 352.335938 92.65625 C 352.335938 92.65625 352.335938 92.40625 352.335938 92.28125 C 352.207031 41.332031 310.628906 0 259.679688 0 C 233.953125 0 220.71875 7.613281 181.753906 30.34375 C 163.277344 41.082031 137.925781 55.816406 101.335938 75.671875 C 95.21875 79.046875 91.347656 85.414062 91.347656 92.53125 C 91.347656 99.523438 95.21875 106.015625 101.335938 109.386719 C 138.421875 129.496094 164.023438 144.351562 182.632812 155.222656 C 222.339844 178.324219 234.328125 185.191406 259.800781 185.191406 C 310.75 185.191406 352.335938 143.605469 352.335938 92.65625 " fill-opacity="1" fill-rule="nonzero"/></g><g clip-path="url(#f1f9af0140)"><path fill="#d6e0ed" d="M 115.320312 121.625 C 124.1875 121.625 127.183594 122.875 155.03125 139.109375 C 162.773438 143.605469 172.265625 149.097656 184.003906 155.71875 C 172.265625 162.335938 162.902344 167.707031 155.160156 172.328125 C 127.0625 188.5625 124.0625 189.933594 115.449219 189.933594 C 96.589844 189.933594 81.355469 174.578125 81.355469 155.589844 C 81.230469 136.859375 96.589844 121.625 115.320312 121.625 Z M 193.246094 218.027344 C 211.722656 207.292969 237.074219 192.554688 273.664062 172.578125 C 279.78125 169.207031 283.652344 162.835938 283.652344 155.71875 C 283.652344 148.722656 279.78125 142.230469 273.664062 138.859375 C 236.578125 118.753906 211.097656 103.894531 192.496094 93.03125 C 152.785156 69.929688 140.796875 63.0625 115.320312 63.0625 C 64.25 63.0625 22.664062 104.644531 22.664062 155.589844 L 22.664062 155.84375 C 22.792969 206.789062 64.371094 248.125 115.320312 248.125 C 141.046875 248.375 154.160156 240.761719 193.246094 218.027344 " fill-opacity="1" fill-rule="nonzero"/></g><g clip-path="url(#31626433ba)"><path fill="#30373f" d="M 259.679688 253.242188 C 250.8125 253.242188 247.816406 251.992188 220.09375 235.765625 C 212.347656 231.269531 202.859375 225.773438 191.121094 219.027344 C 202.859375 212.410156 212.226562 206.917969 219.96875 202.417969 C 248.0625 186.1875 251.058594 184.816406 259.679688 184.816406 C 278.53125 184.816406 293.769531 200.175781 293.894531 219.15625 C 293.769531 238.136719 278.410156 253.242188 259.679688 253.242188 Z M 352.335938 219.15625 C 352.335938 219.15625 352.335938 218.90625 352.335938 218.78125 C 352.207031 167.832031 310.628906 126.5 259.679688 126.5 C 233.953125 126.5 220.71875 134.113281 181.753906 156.839844 C 163.277344 167.582031 137.925781 182.316406 101.335938 202.171875 C 95.21875 205.542969 91.347656 211.910156 91.347656 219.027344 C 91.347656 226.023438 95.21875 232.515625 101.335938 235.886719 C 138.421875 255.992188 164.023438 270.851562 182.632812 281.714844 C 222.339844 304.816406 234.328125 311.683594 259.800781 311.683594 C 310.75 311.8125 352.335938 270.226562 352.335938 219.15625 " fill-opacity="1" fill-rule="nonzero"/></g><g clip-path="url(#2136a256d2)"><path fill="#587d9f" d="M 115.320312 248.375 C 124.1875 248.375 127.183594 249.625 155.03125 265.855469 C 162.773438 270.355469 172.265625 275.847656 184.003906 282.464844 C 172.386719 289.085938 162.902344 294.453125 155.160156 298.949219 C 127.0625 315.183594 124.0625 316.558594 115.449219 316.558594 C 96.589844 316.558594 81.355469 301.199219 81.355469 282.21875 C 81.230469 263.609375 96.589844 248.375 115.320312 248.375 Z M 193.246094 344.777344 C 211.722656 334.039062 237.074219 319.304688 273.664062 299.324219 C 279.78125 295.953125 283.652344 289.582031 283.652344 282.464844 C 283.652344 275.472656 279.78125 268.980469 273.664062 265.609375 C 236.578125 245.378906 210.976562 230.644531 192.367188 219.78125 C 152.660156 196.679688 140.671875 189.808594 115.199219 189.808594 C 64.25 189.933594 22.664062 231.515625 22.664062 282.464844 L 22.664062 282.714844 C 22.792969 333.664062 64.371094 374.996094 115.320312 374.996094 C 141.046875 375.121094 154.160156 367.507812 193.246094 344.777344 " fill-opacity="1" fill-rule="nonzero"/></g></svg>